<?xml version="1.0" encoding="UTF-8"?>
<svg id="Layer_1" data-name="Layer 1" xmlns="http://www.w3.org/2000/svg" viewBox="0 0 81.5 68.47">
  <defs>
    <style>
      .cls-1 {
        fill: #f4f7f5;
        stroke-width: 0px;
      }
    </style>
  </defs>
  <path class="cls-1" d="m30.5,10c11.3,0,20.5,9.2,20.5,20.5s-9.2,20.5-20.5,20.5-20.5-9.2-20.5-20.5S19.2,10,30.5,10m0-10C13.66,0,0,13.66,0,30.5s13.66,30.5,30.5,30.5,30.5-13.66,30.5-30.5S47.34,0,30.5,0h0Z"/>
  <path class="cls-1" d="m48,43c2.3-.56,4.86-.89,7.17-1.01,2.74,2.13,9.65,7.09,12.53,9.23,2.74,2.01,9.9,7.24,12.56,9.19.5,2.25,1.02,4.46,1.24,7.1-2.58.6-4.85.77-7.14.97-2.63-1.92-9.84-7.19-12.56-9.19-2.94-2.13-9.69-7.16-12.59-9.15-.58-2.23-1.04-4.78-1.21-7.14h0Z"/>
</svg>